# xmcd
#
# Track frame offsets:
#	150
#	15347
#	32315
#	47842
#	62625
#	81725
#	96735
#	111580
#	123470
#	139677
#	156292
#	171100
#	185400
#	201515
#	216860
#	230040
#	244575
#	259770
#	277760
#	288930
#
# Disc length: 4111
#
# Revision: 1
# Processed by: cddbd v1.5.1PL0 Copyright (c) Steve Scherf et al.
# Submitted via: VisiTrax 2.9.5.180 - For more info visit www.synapsa.com
# Normalized: r0:DSETVAR1
#
DISCID=2a100d14
DTITLE=Various Artist - CDX 159 April 1997
DYEAR=1997
DGENRE=
TTITLE0=Pam Tillis - All the good ones are gone
TTITLE1=Lonestar - Come cryin' to me
TTITLE2=Sky Kings - Fooled around and fell in love
TTITLE3=Gary Allan - From where I'm sitting
TTITLE4=Jo Dee Messina - He'd never seen Julie cry
TTITLE5=Ricochet - He left a lot to be desired
TTITLE6=Kim Richey - I know
TTITLE7=Billy Yates - I smell smoke
TTITLE8=Jeffrey Steele - My greatest love
TTITLE9=Gene Watson - No goodbyes
TTITLE10=Noel Haggard - One lifetime
TTITLE11=Clay Walker - One, two, I love you
TTITLE12=Jim Wise - She wants to drive my truck (The beep beep song)
TTITLE13=Marty Suart - Sweet love
TTITLE14=Barbara Mandrell - Ten pound hammer
TTITLE15=Rich McCready - That just about covers it
TTITLE16=Mary Chapin Carpenter - The better to dream of you
TTITLE17=Patty Loveless - The trouble with the truth
TTITLE18=Flying Burritto Brothers - Buckaroo
TTITLE19=Bill and Bonnie Hearne - Walk through the bottomland
EXTD=
EXTT0=
EXTT1=
EXTT2=
EXTT3=
EXTT4=
EXTT5=
EXTT6=
EXTT7=
EXTT8=
EXTT9=
EXTT10=
EXTT11=
EXTT12=
EXTT13=
EXTT14=
EXTT15=
EXTT16=
EXTT17=
EXTT18=
EXTT19=
PLAYORDER=
